<svg width="136" height="138" viewBox="0 0 136 138" fill="none" xmlns="http://www.w3.org/2000/svg">
<path d="M54.6719 16.8771C41.8554 19.7687 18.6052 30.3231 28.1363 49.4079C29.0028 45.5042 30.3024 42.3596 30.844 41.2752C31.566 46.5163 33.0101 55.3719 31.3855 59.1672C29.7609 62.9624 22.1793 69.4686 22.1793 69.4686C21.4572 70.7337 21.5294 73.5892 27.5947 74.8904C28.1363 75.4326 27.5947 79.2279 25.9701 80.3122C24.3454 81.3966 28.1362 81.9388 28.6778 82.481C29.2193 83.0231 25.9701 85.1919 27.0531 86.8184C27.9196 88.1196 29.5803 88.8064 30.3024 88.9871C29.2193 93.3246 28.5695 101.783 34.6347 100.915C42.2163 99.8308 53.5887 98.7464 54.6718 100.373C55.7549 101.999 63.878 113.385 56.838 126.398C51.2059 136.807 48.7148 137.964 48.1733 137.241H17.8469C12.0705 136.157 0.517578 131.06 0.517578 119.349V17.9614C1.78118 12.3589 7.55763 1.15381 20.5546 1.15381H116.949C123.087 1.33454 135.362 4.7322 135.362 16.8771V120.434C135.001 124.59 132.762 133.012 126.697 133.446C119.115 133.988 100.161 123.145 97.4536 118.265C94.7459 113.385 88.2474 107.421 89.3305 89.5293C90.4136 88.445 107.743 75.4326 109.909 69.4686C111.642 64.6974 111.353 72.1795 110.992 76.517C107.021 81.0351 99.1866 91.698 99.6198 98.2042C100.161 106.337 105.035 120.434 118.032 119.349C122.365 119.349 125.975 115.012 127.238 112.843C123.267 113.205 116.083 111.976 119.115 104.168C122.906 94.4089 128.863 86.2762 129.405 81.3966C129.946 76.517 131.571 56.9985 114.241 58.0828C114.241 56.9985 119.115 28.805 89.3305 15.7927C86.0813 15.2505 83.3735 13.0818 74.7089 13.0818C67.7771 13.0818 63.517 14.5276 62.2534 15.2505C64.6001 21.576 69.6184 38.239 70.9181 54.2875C72.0012 54.8297 80.1243 55.3719 82.2905 65.1312C84.4566 74.8904 73.0842 81.3966 69.835 81.3966C67.2356 81.3966 64.0585 80.3122 62.7949 79.7701C60.2677 82.481 53.4804 88.6618 46.5487 91.698C44.924 93.3246 36.8009 98.2042 36.2594 91.698C35.8261 86.4931 41.8553 87.3606 44.924 88.445C49.7979 85.5533 59.4374 79.3363 59.0041 77.6013C58.4626 75.4326 50.881 64.0468 63.3365 55.3719C63.3365 55.3719 64.9611 54.649 64.9611 54.8297C63.6976 45.2512 59.8708 24.2507 54.6719 16.8771Z" fill="url(#paint0_linear_370_2796)" fill-opacity="0.66"/>
<path d="M0.517578 119.349C0.517578 131.06 12.0705 136.157 17.8469 137.241H48.1733C48.7148 137.964 51.2059 136.807 56.838 126.398C63.878 113.385 55.7549 101.999 54.6718 100.373C53.5887 98.7464 42.2163 99.8308 34.6347 100.915C28.5695 101.783 29.2193 93.3246 30.3024 88.9871C29.5803 88.8064 27.9196 88.1196 27.0531 86.8184C25.9701 85.1919 29.2193 83.0231 28.6778 82.481C28.1362 81.9388 24.3454 81.3966 25.9701 80.3122C27.5947 79.2279 28.1363 75.4326 27.5947 74.8904C21.5294 73.5892 21.4572 70.7337 22.1793 69.4686C22.1793 69.4686 29.7609 62.9624 31.3855 59.1672C33.0101 55.3719 31.566 46.5163 30.844 41.2752C30.3024 42.3596 29.0028 45.5042 28.1363 49.4079C18.6052 30.3231 41.8554 19.7687 54.6719 16.8771C59.8708 24.2507 63.6976 45.2512 64.9611 54.8297C64.9611 54.649 63.3365 55.3719 63.3365 55.3719C50.881 64.0468 58.4626 75.4326 59.0041 77.6013C59.4374 79.3363 49.7979 85.5533 44.924 88.445C41.8553 87.3606 35.8261 86.4931 36.2594 91.698C36.8009 98.2042 44.924 93.3246 46.5487 91.698C53.4804 88.6618 60.2677 82.481 62.7949 79.7701C64.0585 80.3122 67.2356 81.3966 69.835 81.3966C73.0842 81.3966 84.4566 74.8904 82.2905 65.1312C80.1243 55.3719 72.0012 54.8297 70.9181 54.2875C69.6184 38.239 64.6001 21.576 62.2534 15.2505C63.517 14.5276 67.7771 13.0818 74.7089 13.0818C83.3735 13.0818 86.0813 15.2505 89.3305 15.7927C119.115 28.805 114.241 56.9985 114.241 58.0828C131.571 56.9985 129.946 76.517 129.405 81.3966C128.863 86.2762 122.906 94.4089 119.115 104.168C116.083 111.976 123.267 113.205 127.238 112.843C125.975 115.012 122.365 119.349 118.032 119.349C105.035 120.434 100.161 106.337 99.6198 98.2042C99.1866 91.698 107.021 81.0351 110.992 76.517C111.353 72.1795 111.642 64.6974 109.909 69.4686C107.743 75.4326 90.4136 88.445 89.3305 89.5293C88.2474 107.421 94.7459 113.385 97.4536 118.265C100.161 123.145 119.115 133.988 126.697 133.446C132.762 133.012 135.001 124.59 135.362 120.434M0.517578 119.349C0.517578 107.638 0.517578 46.8777 0.517578 17.9614M0.517578 119.349V17.9614M0.517578 17.9614C1.78118 12.3589 7.55763 1.15381 20.5546 1.15381M20.5546 1.15381C33.5517 1.15381 90.2331 1.15381 116.949 1.15381M20.5546 1.15381H116.949M116.949 1.15381C123.087 1.33454 135.362 4.7322 135.362 16.8771M135.362 16.8771C135.362 29.0219 135.362 90.9751 135.362 120.434M135.362 16.8771V120.434" stroke="url(#paint1_linear_370_2796)" stroke-opacity="0.66" stroke-width="0.840135"/>
<defs>
<linearGradient id="paint0_linear_370_2796" x1="0.517578" y1="69.2843" x2="135.362" y2="69.2843" gradientUnits="userSpaceOnUse">
<stop stop-color="#00BBA7" stop-opacity="0.66"/>
<stop offset="1" stop-color="#00D3F2"/>
</linearGradient>
<linearGradient id="paint1_linear_370_2796" x1="0.517578" y1="69.2843" x2="135.362" y2="69.2843" gradientUnits="userSpaceOnUse">
<stop stop-color="#00BBA7" stop-opacity="0.66"/>
<stop offset="1" stop-color="#00D3F2"/>
</linearGradient>
</defs>
</svg>
